<?xml version="1.0" encoding="UTF-8"?>
<svg id="Layer_1" data-name="Layer 1" xmlns="http://www.w3.org/2000/svg" viewBox="0 0 545.25 59.28">
  <defs>
    <style>
      .cls-1 {
        fill: #7fc785;
      }

      .cls-1, .cls-2, .cls-3 {
        stroke-width: 0px;
      }

      .cls-2 {
        fill: #323232;
      }

      .cls-3 {
        fill: #e5303f;
      }
    </style>
  </defs>
  <path class="cls-2" d="M43.7,44.38l3.45,7.58c-4.72,4.38-11.54,6.65-17.68,6.65C13.22,58.61,0,45.64,0,29.64S13.22.67,29.47.67c6.15,0,12.97,2.19,17.68,6.57l-3.45,7.58c-3.87-3.96-8.34-6.06-14.74-6.06-11.54,0-20.88,9.35-20.88,20.88s9.35,20.88,20.88,20.88c6.4,0,10.86-2.11,14.74-6.15Z"/>
  <path class="cls-2" d="M166.93,1.35v57.93L119.77,11.15V0l39.07,40.08V1.35h8.08ZM119.77,14.36l8.08,8.13v35.45h-8.08V14.36Z"/>
  <path class="cls-2" d="M219.82,41.34c0,9.85-8.17,17.26-21.39,17.26s-20.88-8.17-21.73-9.18l4.04-7.24c4.72,5.22,11.2,8.34,17.85,8.34,8.5,0,13.14-3.45,13.14-8.84,0-4.55-5.14-7.33-12.88-8.67-15.75-2.7-20.21-8.34-20.21-15.92,0-9.18,7.16-16.42,20.38-16.42,2.36,0,11.28.25,18.27,6.74l-3.87,7.33c-2.95-2.86-7.49-5.98-14.57-5.98-7.75,0-12.13,2.95-12.13,8,0,4.38,3.87,6.4,12.8,8.17,13.47,2.61,20.29,6.91,20.29,16.42Z"/>
  <path class="cls-2" d="M272.11,1.35v31.66c0,14.9-6.74,25.6-21.56,25.6s-21.56-10.7-21.56-25.6V1.35h8.08v34.36c0,8.76,4.97,14.82,13.47,14.82s13.47-6.06,13.47-14.82V1.35h8.08Z"/>
  <path class="cls-2" d="M284.02,1.35h8.08v56.59h-8.08V1.35ZM294.41,57.93v-8.08h20.6v8.08h-20.6Z"/>
  <path class="cls-2" d="M351.46,1.35v8.08h-32.33V1.35h32.33ZM319.12,33.68v-7.97h28.29v7.97h-28.29ZM327.21,49.85h24.25v8.08h-32.33v-8.11h8.08v.03Z"/>
  <path class="cls-2" d="M408.85,57.93h-8.76l-5.47-12.13h-.03l-12.69-27.96-12.69,27.96h-.03l-5.47,12.13h-8.76L381.9,0l26.95,57.93Z"/>
  <path class="cls-2" d="M458.7,29.64c0,15.66-10.44,28.29-28.88,28.29h-16.93v-8.08h19.03c11.03,0,18.69-9.01,18.69-20.21s-7.66-20.21-18.69-20.21h-19.03V1.35h16.93c18.86,0,28.88,12.63,28.88,28.29Z"/>
  <path class="cls-2" d="M497.52,1.35v8.08h-32.33V1.35h32.33ZM465.18,33.68v-7.97h28.29v7.97h-28.29ZM473.26,49.85h24.25v8.08h-32.33v-8.11h8.08v.03Z"/>
  <path class="cls-2" d="M545.25,57.93h-9.43l-14.06-19.54h-8.84v19.54h-8.08v-27.62h20.12c5.89,0,10.86-3.03,10.86-10.36s-4.8-10.53-10.69-10.53h-20.29V1.35h17.51c14.74,0,21.56,7.41,21.56,18.1,0,8.76-4.8,15.92-13.22,18.19l14.57,20.29Z"/>
  <path class="cls-2" d="M78.54,50.37c-.51-.06-1.01-.14-1.51-.23-.42-.08-.83-.18-1.25-.29-.14-.04-.29-.07-.43-.11-.61-.17-1.21-.37-1.81-.6-3.71-1.42-6.77-3.75-9.04-6.64-.06-.07-.12-.14-.18-.22-.19-.24-.35-.5-.52-.75-.2-.28-.4-.56-.58-.85-.03-.05-.06-.1-.09-.15-1.92-3.16-3.03-6.89-3.03-10.9,0-.64.03-1.28.09-1.91.01-.15.04-.29.05-.44.05-.43.11-.85.18-1.26.09-.5.19-1,.32-1.5.39-1.56.94-3.06,1.65-4.45h.03c1.19-2.33,2.77-4.35,4.62-6.02.08-.07.16-.14.25-.21.36-.32.74-.63,1.12-.92.23-.17.47-.33.7-.49.25-.17.5-.35.75-.51.4-.25.8-.48,1.21-.7.11-.06.21-.12.32-.18,2.22-1.13,4.67-1.89,7.27-2.17v-.03c.38-.04.77-.07,1.15-.09V.7c-1.31.05-2.61.19-3.89.42-.02,0-.03,0-.05,0-.39.07-.79.15-1.17.24-.11.02-.21.05-.32.07-.3.07-.59.14-.89.22-.18.05-.36.1-.53.15-.22.06-.44.13-.66.2-.23.07-.47.15-.7.23-.16.06-.33.12-.49.17-.27.1-.54.2-.81.3-.13.05-.26.1-.39.16-.29.12-.57.24-.85.37-.12.05-.23.11-.35.16-.28.13-.57.27-.85.41-.12.06-.24.12-.35.18-.27.14-.53.28-.79.43-.14.08-.27.16-.41.24-.24.14-.47.28-.7.42-.16.1-.32.21-.48.31-.2.13-.39.26-.59.39-.19.13-.38.27-.57.4-.16.12-.32.23-.48.35-.21.16-.42.33-.63.49-.13.1-.25.2-.38.31-.23.19-.45.38-.67.58-.1.09-.21.18-.31.28-.23.21-.45.42-.68.64-.09.09-.19.18-.28.27-.22.22-.43.44-.64.66-.1.1-.2.21-.29.31-.19.21-.38.42-.57.64-.12.13-.23.27-.34.4-.15.19-.31.37-.46.56-.14.18-.29.37-.43.55-.11.15-.22.29-.32.44-.18.25-.36.5-.53.76-.06.09-.12.18-.18.26-.22.34-.44.68-.64,1.02,0,.01-.01.02-.02.04-2.44,4.06-3.91,8.76-4.1,13.79-.01.36-.03.72-.03,1.08,0,0,0,.01,0,.02,0,.15,0,.3.01.45,0,.3,0,.6.02.9.02.34.04.67.07,1,0,.11.01.22.02.32.37,4.06,1.59,7.87,3.46,11.27,0,.02.02.03.03.05.18.32.37.64.56.96.05.09.11.18.16.27.15.24.3.48.46.71.11.16.22.33.33.49.11.16.22.31.33.46.17.24.34.47.52.7.06.08.12.15.18.23.23.3.47.59.71.88,0,0,.01.02.02.02,2.51,2.97,5.65,5.47,9.31,7.27.09.04.18.08.27.12.31.15.62.3.94.44.27.12.55.23.82.34.14.06.28.12.43.17,0,0,.01,0,.02,0,.36.14.72.26,1.09.39,2.67.9,5.38,1.37,8.07,1.48v-8.08c-.43-.03-.87-.07-1.3-.12Z"/>
  <path class="cls-2" d="M109.95,29.21c0-.31,0-.61-.02-.92-.02-.34-.04-.68-.07-1.02,0-.1-.01-.2-.02-.31-.37-4.07-1.59-7.88-3.47-11.29,0,0-.01-.02-.02-.03-.18-.33-.37-.66-.57-.98-.05-.08-.1-.17-.15-.25-.15-.25-.31-.49-.47-.73-.1-.16-.21-.32-.32-.47-.11-.16-.23-.32-.34-.48-.16-.23-.33-.46-.5-.68-.06-.08-.13-.17-.19-.25-.23-.29-.46-.58-.7-.86-.01-.01-.02-.03-.04-.04-2.51-2.96-5.64-5.46-9.3-7.25-.1-.05-.2-.09-.3-.14-.3-.14-.6-.29-.91-.42-.29-.13-.58-.24-.87-.36-.13-.05-.25-.11-.38-.16,0,0,0,0-.01,0-.42-.16-.85-.31-1.28-.45-2.61-.86-5.25-1.31-7.88-1.41v8.08c.43.03.86.07,1.3.12.51.06,1.01.14,1.51.23.42.08.83.18,1.25.29.14.04.29.07.43.11.61.17,1.21.37,1.81.6,3.72,1.42,6.79,3.77,9.06,6.67.05.06.11.12.15.19.19.26.37.52.55.79.19.27.38.53.55.81.04.06.07.13.11.19,1.91,3.16,3.01,6.87,3.01,10.86,0,.64-.03,1.28-.09,1.91-.01.14-.03.29-.05.43-.05.43-.11.85-.18,1.28-.09.5-.19.99-.32,1.49-.39,1.57-.94,3.06-1.65,4.46h-.02c-1.19,2.33-2.77,4.35-4.62,6.02-.08.08-.17.15-.26.22-.36.31-.73.62-1.11.9-.23.18-.48.34-.72.5-.25.17-.49.34-.74.5-.4.25-.81.48-1.22.7-.11.06-.21.12-.32.18-2.22,1.13-4.67,1.89-7.28,2.17v.03c-.38.04-.77.07-1.15.09v8.06c1.31-.05,2.61-.19,3.89-.41.02,0,.03,0,.05,0,.39-.07.79-.15,1.17-.24.11-.02.21-.05.32-.07.3-.07.59-.14.89-.22.18-.05.36-.1.53-.15.22-.06.44-.13.66-.2.23-.07.47-.15.7-.23.17-.06.33-.12.49-.17.27-.1.54-.2.8-.3.13-.05.26-.11.39-.16.29-.12.57-.24.85-.37.12-.05.23-.11.35-.16.28-.13.56-.27.84-.41.12-.06.24-.13.36-.19.26-.14.53-.28.79-.43.14-.08.28-.16.41-.24.23-.14.46-.27.69-.42.17-.1.33-.21.49-.32.19-.13.39-.26.58-.39.19-.13.38-.27.58-.41.16-.11.31-.23.46-.34.22-.16.43-.33.64-.5.12-.1.25-.2.37-.3.23-.19.46-.39.69-.59.1-.09.2-.18.3-.26.23-.21.46-.43.69-.65.09-.09.18-.17.27-.26.22-.22.44-.44.65-.67.09-.1.19-.2.28-.3.19-.21.39-.43.57-.65.11-.13.23-.26.34-.4.16-.19.31-.38.46-.57.14-.18.28-.36.42-.54.11-.15.22-.3.33-.45.18-.24.35-.49.52-.74.06-.09.12-.19.19-.28.22-.33.43-.67.63-1,.01-.02.02-.03.03-.05,2.4-3.99,3.86-8.61,4.09-13.56.02-.44.03-.87.03-1.31,0,0,0,0,0-.01,0-.14,0-.29-.01-.43Z"/>
  <g>
    <polygon class="cls-1" points="374.72 39.4 389.17 39.4 381.95 23.49 374.72 39.4"/>
    <polygon class="cls-3" points="389.17 42.03 374.72 42.03 381.93 57.93 389.17 42.03"/>
  </g>
</svg>